<?xml version="1.0" standalone="no"?>
<!DOCTYPE svg PUBLIC "-//W3C//DTD SVG 20010904//EN"
 "http://www.w3.org/TR/2001/REC-SVG-20010904/DTD/svg10.dtd">
<svg version="1.0" xmlns="http://www.w3.org/2000/svg"
 width="900.000000pt" height="900.000000pt" viewBox="0 0 900.000000 900.000000"
 preserveAspectRatio="xMidYMid meet">
<metadata>
Created by potrace 1.16, written by Peter Selinger 2001-2019
</metadata>
<g transform="translate(0.000000,900.000000) scale(0.100000,-0.100000)"
fill="#000000" stroke="none">
<path d="M2768 8973 c-16 -28 -49 -150 -233 -878 -137 -540 -227 -985 -260
-1285 -4 -30 -13 -95 -22 -143 -28 -162 -6 -208 144 -298 l86 -52 101 12 c55
7 119 14 141 17 22 2 96 11 165 19 69 9 182 18 251 22 202 10 250 -16 332
-174 25 -48 48 -105 52 -126 7 -36 7 -37 -16 -28 -29 11 -99 52 -196 115 -40
25 -85 49 -100 52 -16 3 -274 -36 -578 -86 -550 -93 -699 -109 -726 -83 -16
16 -14 146 6 383 8 96 21 265 30 375 8 110 20 256 25 325 6 69 17 215 25 325
36 458 167 1188 250 1393 47 115 25 123 -65 25 -115 -126 -209 -360 -354 -883
-97 -346 -157 -583 -251 -980 -25 -107 -48 -204 -50 -215 -11 -42 -77 -353
-91 -430 -9 -44 -27 -136 -40 -204 -13 -68 -24 -134 -24 -145 1 -12 61 -115
135 -231 74 -115 136 -214 138 -220 2 -5 59 13 128 39 319 123 365 136 520
146 79 5 316 14 526 20 364 9 386 9 458 -10 148 -38 244 -110 213 -160 -7 -11
-22 -23 -33 -25 -11 -3 -137 -9 -280 -13 -219 -7 -265 -12 -287 -26 -14 -9
-63 -60 -109 -113 -199 -229 -245 -282 -304 -348 -34 -38 -75 -86 -92 -105
-30 -35 -442 -509 -492 -565 -15 -16 -73 -84 -130 -150 -173 -200 -223 -220
-356 -140 -32 20 -62 32 -66 28 -4 -4 -15 -75 -25 -158 -33 -297 -4 -679 87
-1145 124 -631 356 -1346 515 -1585 21 -32 73 -95 117 -141 l79 -84 29 15 c16
9 29 19 29 23 0 4 -15 38 -34 77 -19 38 -49 113 -67 165 -17 52 -51 149 -74
215 -56 155 -107 353 -140 535 -14 80 -37 199 -50 265 -30 150 -70 423 -91
624 -12 122 -13 171 -5 235 6 45 16 135 22 201 13 138 47 283 87 369 41 88
132 216 278 393 262 317 339 409 390 468 29 33 90 103 136 156 45 53 117 142
158 200 41 57 106 136 144 176 98 103 114 108 354 107 105 0 195 -3 198 -7 4
-3 -16 -37 -43 -74 -83 -116 -319 -502 -383 -626 -9 -18 -20 -27 -30 -24 -76
23 -110 30 -115 26 -2 -3 -12 -43 -20 -90 -8 -46 -25 -140 -37 -209 -19 -106
-23 -157 -21 -341 0 -119 6 -283 13 -365 13 -167 76 -717 90 -779 39 -184 122
-586 144 -699 15 -76 40 -184 56 -240 16 -55 63 -225 105 -376 119 -427 164
-582 180 -615 125 -264 230 -449 302 -533 40 -47 165 -151 235 -196 34 -22 51
-13 78 39 l20 38 -118 116 c-97 96 -125 130 -160 197 -105 205 -174 405 -237
689 -14 66 -37 174 -51 240 -14 66 -32 152 -41 190 -22 94 -40 205 -57 350
-15 124 -28 224 -70 530 -43 312 -49 433 -44 820 6 397 6 401 98 765 31 122
33 150 7 150 -20 0 -47 64 -47 111 0 49 67 195 119 259 118 147 247 255 348
295 34 13 178 45 202 45 5 0 -8 -39 -30 -87 -22 -47 -67 -152 -100 -233 -56
-140 -59 -151 -59 -234 0 -126 67 -491 132 -721 11 -38 40 -113 65 -165 24
-52 53 -121 64 -155 37 -110 148 -379 205 -495 88 -180 112 -204 134 -132 26
86 42 122 55 122 12 0 58 -84 79 -143 3 -10 13 -17 23 -15 29 5 293 729 367
1009 90 335 124 607 97 751 -16 79 -67 212 -137 351 l-54 107 32 0 c73 0 215
-56 288 -112 67 -51 164 -158 206 -225 77 -123 93 -214 52 -297 l-21 -44 35
-84 c92 -215 138 -430 170 -794 17 -196 17 -830 0 -1044 -7 -91 -17 -268 -22
-395 -10 -262 -31 -405 -90 -630 -91 -348 -228 -686 -393 -973 -43 -73 -77
-140 -77 -148 0 -19 59 -96 70 -92 17 6 115 137 205 273 98 146 260 452 341
640 137 321 226 677 265 1055 72 720 79 809 79 1130 0 456 -30 1058 -59 1200
-33 165 -52 245 -59 252 -4 4 -27 3 -51 -3 -25 -5 -52 -9 -62 -7 -9 2 -85 80
-167 173 -83 94 -209 237 -281 318 -72 82 -131 151 -131 153 0 2 10 2 23 0 23
-4 67 -12 292 -47 146 -23 163 -31 260 -126 33 -32 130 -123 215 -202 85 -80
202 -190 260 -245 128 -124 473 -442 640 -591 230 -206 257 -236 276 -301 14
-51 16 -87 11 -259 -4 -110 -13 -283 -22 -385 -8 -102 -20 -273 -25 -380 -20
-406 -37 -543 -96 -759 -26 -96 -151 -461 -222 -651 l-40 -105 19 -37 c11 -21
26 -38 33 -38 8 0 28 19 46 43 38 52 178 331 244 487 27 63 73 168 102 233 70
154 166 399 220 563 93 282 188 742 240 1159 13 103 34 275 38 318 6 54 -2 58
-49 27 -34 -23 -80 -25 -136 -8 -32 9 -395 289 -694 533 -22 18 -103 83 -180
145 -77 61 -210 178 -295 259 -142 134 -360 338 -535 501 -96 89 -136 100
-448 120 -130 8 -229 20 -304 36 -18 3 -23 11 -23 37 0 44 6 50 80 92 137 79
176 88 365 91 94 1 202 -2 240 -7 74 -11 359 -73 410 -89 17 -6 68 -21 115
-34 108 -30 307 -107 479 -185 74 -34 138 -61 142 -61 8 0 92 57 355 239 44
31 93 65 109 77 l28 21 -17 139 c-72 581 -95 734 -167 1103 -55 281 -142 624
-231 906 -162 513 -251 774 -275 799 -14 15 -29 24 -34 19 -4 -4 -4 -40 1 -78
5 -39 16 -133 25 -210 9 -77 25 -212 35 -300 11 -88 31 -257 45 -375 14 -118
30 -244 35 -280 5 -36 17 -130 25 -210 9 -80 25 -210 35 -290 10 -80 21 -170
24 -200 8 -73 44 -367 56 -455 10 -76 4 -435 -8 -446 -7 -7 -313 43 -467 76
-116 24 -371 82 -510 115 -282 66 -513 119 -547 125 -69 11 -204 -32 -283 -90
-16 -12 -42 -30 -57 -39 l-27 -18 25 92 c26 98 53 146 89 160 12 4 260 9 551
11 408 1 540 5 578 16 48 13 52 12 107 -17 32 -16 64 -30 71 -30 11 0 130 94
286 226 23 19 42 44 42 55 0 11 -24 142 -54 292 -62 312 -146 743 -175 897
-27 143 -176 834 -236 1098 -18 79 -36 117 -55 117 -18 0 -18 -86 0 -710 6
-220 13 -636 16 -925 5 -461 4 -533 -10 -594 -9 -38 -23 -83 -32 -101 l-15
-33 -397 -7 c-369 -8 -734 2 -813 21 -24 5 -31 -2 -86 -88 -33 -51 -77 -126
-97 -165 -21 -40 -42 -73 -46 -73 -5 0 -13 13 -18 30 -33 93 -116 163 -208
175 -68 9 -74 -7 -25 -69 62 -78 130 -226 103 -226 -5 0 -26 25 -46 55 -37 56
-57 66 -96 45 -10 -5 -21 -23 -25 -40 -4 -16 -20 -41 -37 -55 -26 -22 -39 -25
-104 -25 -42 0 -84 4 -94 10 -10 5 -30 30 -44 55 -45 77 -108 71 -155 -14 -57
-104 -43 34 15 151 30 60 42 98 30 98 -2 0 -33 -9 -69 -20 -87 -27 -117 -54
-157 -141 l-33 -71 -68 139 c-82 166 -119 212 -202 252 -86 42 -193 51 -574
49 -172 -1 -315 1 -319 5 -4 3 3 80 15 169 74 560 111 1024 136 1683 8 215 26
416 41 468 9 28 -30 20 -48 -10z"/>
</g>
</svg>
